#!OML:ASF H:\IndianDance\Patient Classification 1\Patient 1\Session 1\dancer.ASF
:FULLY-SPECIFIED
:DEGREES
2402
root -8.30001 15.7079 -7.83999 -173.699 -1.54089 -175.85
lowerback 6.55763 1.43148 0.859458
upperback -6.76649 1.75347 -0.0208501
thorax -10.8986 0.658318 -0.759344
lowerneck -17.7834 -3.04511 -2.92616
upperneck 16.962 -4.21237 3.2504
head 8.33449 -1.90653 1.04234
rclavicle 4.00551e-014 -1.03368e-014
rhumerus -48.8626 -35.9702 -22.1775
rradius 108.375
rwrist -51.1179
rhand -38.7883 24.7249
rfingers 7.12502
rthumb -11.7995 -4.92273
lclavicle 4.00551e-014 -1.03368e-014
lhumerus -20.1995 42.0976 11.5178
lradius 65.5645
lwrist 65.0884
lhand 6.22878 367.93
lfingers 7.12502
lthumb 31.5413 35.2267
rfemur -218.277 210.782 205.49
rtibia 62.0194
rfoot 14.4084 -353.604
rtoes -3.41255
lfemur -34.4881 30.8293 -19.1641
ltibia 62.6956
lfoot 10.1655 -15.1908
ltoes -4.18494
2403
root -8.30087 15.6933 -7.84123 -173.649 -1.05606 -175.433
lowerback 6.41445 1.59093 1.31454
upperback -6.84439 2.01904 0.0952653
thorax -10.8833 0.750398 -0.927123
lowerneck -17.8292 -2.95873 -2.9009
upperneck 17.077 -4.10858 3.25583
head 8.37747 -1.85569 1.05208
rclavicle -2.8625e-014 -6.75868e-015
rhumerus -47.546 -36.6419 -22.7022
rradius 105.886
rwrist -53.7694
rhand -37.8616 22.0415
rfingers 7.12502
rthumb -10.9058 -7.65533
lclavicle -2.8625e-014 -6.75868e-015
lhumerus -19.1916 42.1967 11.9318
lradius 63.0472
lwrist 64.8684
lhand 4.73882 368.679
lfingers 7.12502
lthumb 30.1208 36.244
rfemur -218.499 210.784 205.995
rtibia 62.2199
rfoot 14.6592 -353.281
rtoes -3.62294
lfemur -33.9898 30.6946 -18.8697
ltibia 62.0729
lfoot 9.7298 -14.837
ltoes -5.04385
2404
root -8.30451 15.6782 -7.84144 -173.564 -0.505332 -175.078
lowerback 6.25923 1.75932 1.72276
upperback -6.92767 2.28511 0.178772
thorax -10.8646 0.844059 -1.10213
lowerneck -17.864 -2.8571 -2.84187
upperneck 17.1567 -3.99914 3.29652
head 8.4066 -1.79661 1.06916
rclavicle 9.98893e-015 1.31198e-014
rhumerus -46.0946 -37.2292 -23.3549
rradius 103.353
rwrist -56.3819
rhand -36.9277 19.3559
rfingers 7.12502
rthumb -10.0049 -10.3863
lclavicle 9.98893e-015 1.31198e-014
lhumerus -18.1837 42.3114 12.2929
lradius 60.6308
lwrist 64.9307
lhand 3.59338 369.338
lfingers 7.12502
lthumb 29.0274 37.0973
rfemur -218.882 210.801 206.449
rtibia 62.5238
rfoot 15.2633 -353.07
rtoes -3.38815
lfemur -33.4403 30.5189 -18.6237
ltibia 61.4161
lfoot 8.87125 -14.468
ltoes -6.27008
2405
root -8.3099 15.6624 -7.84072 -173.451 0.0836272 -174.841
lowerback 6.10104 1.50692 1.97371
upperback -7.01606 2.63368 0.257349
thorax -10.8623 1.27127 -1.26076
lowerneck -17.8752 -2.74684 -2.7633
upperneck 17.2013 -3.88984 3.37192
head 8.42013 -1.73319 1.09509
rclavicle -2.88238e-015 -7.95139e-016
rhumerus -44.536 -37.731 -24.1108
rradius 100.79
rwrist -59.0231
rhand -36.0018 16.7551
rfingers 7.12502
rthumb -9.11156 -13.028
lclavicle -2.88238e-015 -7.95139e-016
lhumerus -17.1588 42.4863 12.635
lradius 58.3316
lwrist 65.2637
lhand 2.79811 369.973
lfingers 7.12502
lthumb 28.2676 37.8605
rfemur -219.453 210.859 206.799
rtibia 62.9847
rfoot 16.2058 -353.045
rtoes -2.52685
lfemur -32.8974 30.3106 -18.4997
ltibia 60.797
lfoot 7.69522 -14.0532
ltoes -7.82589
2406
root -8.31616 15.6579 -7.84001 -173.325 0.678561 -174.735
lowerback 5.95131 1.6554 2.13583
upperback -7.11269 2.8641 0.249213
thorax -10.8662 1.37472 -1.39185
lowerneck -17.8711 -2.63241 -2.65726
upperneck 17.2204 -3.78577 3.46607
head 8.42246 -1.66884 1.12236
rclavicle -6.95746e-015 -2.3059e-014
rhumerus -42.8814 -38.1598 -24.9614
rradius 98.2017
rwrist -61.743
rhand -35.1047 14.2975
rfingers 7.12502
rthumb -8.24584 -15.5216
lclavicle -6.95746e-015 -2.3059e-014
lhumerus -16.0932 42.7444 12.9869
lradius 56.1465
lwrist 65.7488
lhand 2.27324 370.635
lfingers 7.12502
lthumb 27.7659 38.6041
rfemur -220.14 210.973 207.031
rtibia 63.5526
rfoot 17.4355 -353.234
rtoes -1.14696
lfemur -32.3444 30.0824 -18.5121
ltibia 60.187
lfoot 6.37579 -13.5668
ltoes -9.42788
2407
root -8.32093 15.6399 -7.83807 -173.203 1.24862 -174.763
lowerback 5.81575 1.7909 2.14809
upperback -7.20792 3.05505 0.200582
thorax -10.8817 1.46818 -1.47662
lowerneck -17.8659 -2.516 -2.53279
upperneck 17.2292 -3.68465 3.56482
head 8.42098 -1.60427 1.14779
rclavicle 1.26725e-014 -3.57812e-015
rhumerus -41.1297 -38.5366 -25.8917
rradius 95.5782
rwrist -64.5473
rhand -34.2163 12.0056
rfingers 7.12502
rthumb -7.38832 -17.8453
lclavicle 1.26725e-014 -3.57812e-015
lhumerus -14.9678 43.0738 13.3752
lradius 54.0503
lwrist 66.2001
lhand 1.86199 371.363
lfingers 7.12502
lthumb 27.3726 39.3948
rfemur -221.039 211.154 207.144
rtibia 64.3432
rfoot 18.8382 -353.669
rtoes 0.711
lfemur -31.9157 29.8516 -18.6588
ltibia 59.7176
lfoot 5.06068 -13.0185
ltoes -10.9633
2408
root -8.3237 15.6199 -7.83579 -173.103 1.76841 -174.905
lowerback 5.6994 1.9099 2.02659
upperback -7.2939 3.20421 0.121355
thorax -10.9041 1.54968 -1.51351
lowerneck -17.8745 -2.40422 -2.39068
upperneck 17.2384 -3.59032 3.64571
head 8.42166 -1.54327 1.16332
rclavicle -4.77083e-015 2.22639e-014
rhumerus -39.2857 -38.8927 -26.8765
rradius 92.9025
rwrist -67.4502
rhand -33.2634 9.88441
rfingers 7.12502
rthumb -6.46855 -19.9968
lclavicle -4.77083e-015 2.22639e-014
lhumerus -13.7645 43.4471 13.8391
lradius 52.0188
lwrist 66.4075
lhand 1.47353 372.134
lfingers 7.12502
lthumb 27.001 40.2241
rfemur -222.054 211.413 207.158
rtibia 65.3103
rfoot 20.2005 -354.251
rtoes 2.52022
lfemur -31.5882 29.6241 -18.91
ltibia 59.3704
lfoot 3.96602 -12.4209
ltoes -11.9243
2409
root -8.32372 15.5974 -7.83323 -173.033 2.21773 -175.128
lowerback 5.60168 2.00915 1.80369
upperback -7.36316 3.31163 0.0237995
thorax -10.9245 1.61739 -1.50746
lowerneck -17.9154 -2.30013 -2.23329
upperneck 17.2616 -3.50282 3.69219
head 8.43213 -1.48724 1.16367
rclavicle 4.54223e-014 1.59028e-015
rhumerus -37.3487 -39.2568 -27.9125
rradius 90.1616
rwrist -70.3846
rhand -32.2288 7.90414
rfingers 7.12502
rthumb -5.46967 -22.0053
lclavicle 4.54223e-014 1.59028e-015
lhumerus -12.4661 43.8187 14.4025
lradius 50.0265
lwrist 66.2486
lhand 1.00149 372.948
lfingers 7.12502
lthumb 26.5493 41.1078
rfemur -223.136 211.748 207.107
rtibia 66.4237
rfoot 21.3432 -354.867
rtoes 3.98569
lfemur -31.3581 29.4275 -19.23
ltibia 59.153
lfoot 2.99385 -11.8315
ltoes -12.3836
2410
root -8.31987 15.5603 -7.82981 -172.998 2.58365 -175.392
lowerback 5.51879 2.09062 1.51987
upperback -7.41078 3.38588 -0.0760463
thorax -10.9342 1.67321 -1.46488
lowerneck -17.9826 -2.21453 -2.08483
upperneck 17.2873 -3.43044 3.70838
head 8.44829 -1.44115 1.15327
rclavicle 2.41026e-014 4.77083e-015
rhumerus -35.3187 -39.6313 -28.9744
rradius 87.3438
rwrist -73.2684
rhand -31.1429 5.97692
rfingers 7.12502
rthumb -4.42112 -23.9569
lclavicle 2.41026e-014 4.77083e-015
lhumerus -11.0695 44.1486 15.0959
lradius 48.0653
lwrist 65.6855
lhand 0.430228 373.802
lfingers 7.12502
lthumb 26.0024 42.0428
rfemur -224.291 212.153 207.035
rtibia 67.6765
rfoot 22.1631 -355.386
rtoes 4.8917
lfemur -31.2546 29.2725 -19.5708
ltibia 59.0983
lfoot 2.16078 -11.3044
ltoes -12.6067
2411
root -8.31354 15.5353 -7.82689 -173 2.8601 -175.66
lowerback 5.45385 2.15222 1.21597
upperback -7.4357 3.42971 -0.167094
thorax -10.9323 1.71569 -1.39722
lowerneck -18.056 -2.14581 -1.95999
upperneck 17.2969 -3.36936 3.70867
head 8.46058 -1.403 1.14005
rclavicle 2.68359e-015 5.1684e-015
rhumerus -33.2088 -40.0262 -30.0732
rradius 84.4522
rwrist -76.0373
rhand -30.0297 4.16235
rfingers 7.12502
rthumb -3.34615 -25.7911
lclavicle 2.68359e-015 5.1684e-015
lhumerus -9.58607 44.4275 15.9086
lradius 46.1265
lwrist 64.8232
lhand -0.140118 374.722
lfingers 7.12502
lthumb 25.4562 43.0417
rfemur -225.317 212.615 206.968
rtibia 68.8823
rfoot 22.5886 -355.671
rtoes 5.09698
lfemur -31.1572 29.1624 -19.8875
ltibia 59.0905
lfoot 1.47095 -10.8714
ltoes -12.8046
2412
root -8.30435 15.5101 -7.82379 -173.041 3.04744 -175.908
lowerback 5.41159 2.19634 0.927017
upperback -7.4394 3.45049 -0.246285
thorax -10.9212 1.74556 -1.32208
lowerneck -18.1255 -2.09433 -1.85546
upperneck 17.2873 -3.32142 3.69446
head 8.46621 -1.37359 1.12373
rclavicle 1.90336e-014 -2.78299e-015
rhumerus -31.0378 -40.4038 -31.2131
rradius 81.5096
rwrist -78.5844
rhand -29.039 2.45918
rfingers 7.12502
rthumb -2.38934 -27.5072
lclavicle 1.90336e-014 -2.78299e-015
lhumerus -8.02542 44.6442 16.8451
lradius 44.2332
lwrist 63.8104
lhand -0.690293 375.694
lfingers 7.12502
lthumb 24.929 44.0879
rfemur -226.22 213.108 206.922
rtibia 70.0366
rfoot 22.6166 -355.661
rtoes 4.58576
lfemur -31.0982 29.0882 -20.1503
ltibia 59.1722
lfoot 0.893839 -10.5337
ltoes -13.0783
